<svg width="536" height="306" viewBox="0 0 536 306" fill="none" xmlns="http://www.w3.org/2000/svg">
<path d="M42.5625 74.25C42.5625 77.3333 42.0625 80.25 41.0625 83C40.0625 85.75 38.625 88.1667 36.75 90.25C34.9167 92.2917 32.6875 93.9167 30.0625 95.125C27.4375 96.375 24.5208 97 21.3125 97C18.4792 97 15.8542 96.5417 13.4375 95.625C11.0625 94.75 9 93.5 7.25 91.875C5.5 90.25 4.125 88.2708 3.125 85.9375C2.16667 83.6042 1.6875 81 1.6875 78.125C1.6875 77.5417 1.70833 76.8125 1.75 75.9375C1.79167 75.0625 1.91667 74.2292 2.125 73.4375C2.375 72.6042 2.70833 71.9167 3.125 71.375C3.58333 70.7917 4.22917 70.5 5.0625 70.5C5.72917 70.5 6.45833 70.6458 7.25 70.9375C8.08333 71.1875 8.85417 71.5417 9.5625 72C10.2708 72.4583 10.8542 73.0208 11.3125 73.6875C11.8125 74.3125 12.0625 75 12.0625 75.75V79.375C12.0625 82.25 12.8333 84.6042 14.375 86.4375C15.9583 88.2292 18.2292 89.125 21.1875 89.125C23.2708 89.125 25.0625 88.6458 26.5625 87.6875C28.0625 86.7292 29.2708 85.5 30.1875 84C31.1458 82.5 31.8333 80.8333 32.25 79C32.7083 77.125 32.9375 75.2917 32.9375 73.5C32.9375 70 32.2083 66.6042 30.75 63.3125C29.3333 60.0208 27.5417 56.8125 25.375 53.6875C23.2083 50.5208 20.8542 47.4167 18.3125 44.375C15.7708 41.3333 13.4167 38.3125 11.25 35.3125C9.08333 32.3125 7.27083 29.3125 5.8125 26.3125C4.39583 23.3125 3.6875 20.25 3.6875 17.125C3.6875 14.5833 4.1875 12.3958 5.1875 10.5625C6.22917 8.6875 7.58333 7.16667 9.25 6C10.9583 4.79167 12.875 3.91667 15 3.375C17.1667 2.79167 19.3958 2.5 21.6875 2.5C24.4792 2.5 26.9792 2.89583 29.1875 3.6875C31.3958 4.47917 33.2708 5.625 34.8125 7.125C36.3542 8.625 37.5208 10.4792 38.3125 12.6875C39.1458 14.8542 39.5625 17.3333 39.5625 20.125C39.5625 20.5417 39.5417 21.0625 39.5 21.6875C39.4583 22.3125 39.3542 22.9375 39.1875 23.5625C39.0208 24.1458 38.7708 24.6667 38.4375 25.125C38.1042 25.5417 37.6458 25.75 37.0625 25.75C36.2292 25.75 35.3958 25.5417 34.5625 25.125C33.8542 24.75 33.2708 24.3958 32.8125 24.0625C32.3958 23.6875 32.0625 23.2917 31.8125 22.875C31.5625 22.4167 31.375 21.9167 31.25 21.375C31.125 20.8333 31.0208 20.1667 30.9375 19.375C30.7292 17.875 30.4583 16.5208 30.125 15.3125C29.7917 14.1042 29.2917 13.0833 28.625 12.25C27.9583 11.4167 27.0833 10.7708 26 10.3125C24.9167 9.85417 23.5208 9.625 21.8125 9.625C20.6042 9.625 19.4375 9.75 18.3125 10C17.2292 10.25 16.2708 10.6667 15.4375 11.25C14.6458 11.8333 14 12.6042 13.5 13.5625C13.0417 14.4792 12.8125 15.625 12.8125 17C12.8125 18.9167 13.2292 20.875 14.0625 22.875C14.9375 24.875 16.0625 26.9167 17.4375 29C18.8542 31.0833 20.4375 33.2292 22.1875 35.4375C23.9792 37.6042 25.8125 39.8542 27.6875 42.1875C29.5625 44.5208 31.375 46.9375 33.125 49.4375C34.9167 51.8958 36.5 54.4583 37.875 57.125C39.2917 59.7917 40.4167 62.5625 41.25 65.4375C42.125 68.2708 42.5625 71.2083 42.5625 74.25ZM92.5625 55.625C92.5625 57.875 92.4792 60.3958 92.3125 63.1875C92.1875 65.9792 91.8958 68.8333 91.4375 71.75C90.9792 74.6667 90.3125 77.5208 89.4375 80.3125C88.5625 83.0625 87.375 85.5208 85.875 87.6875C84.375 89.8542 82.5208 91.6042 80.3125 92.9375C78.1458 94.2292 75.5208 94.875 72.4375 94.875C70.7292 94.875 69.0625 94.625 67.4375 94.125C65.8125 93.625 64.3125 92.875 62.9375 91.875C60.7708 90.2917 58.9375 88.0208 57.4375 85.0625C55.9792 82.0625 54.7708 78.7083 53.8125 75C52.8542 71.25 52.125 67.2917 51.625 63.125C51.125 58.9167 50.75 54.7917 50.5 50.75C50.2917 46.7083 50.1667 42.8958 50.125 39.3125C50.0833 35.7292 50.0625 32.6667 50.0625 30.125C50.0625 29.4583 50.0625 28.5 50.0625 27.25C50.0625 26 50.0625 24.625 50.0625 23.125C50.1042 21.5833 50.1458 20 50.1875 18.375C50.2292 16.75 50.2917 15.2083 50.375 13.75C50.4583 12.25 50.5625 10.9375 50.6875 9.8125C50.8125 8.6875 50.9792 7.875 51.1875 7.375C51.3958 6.875 51.625 6.52083 51.875 6.3125C52.1667 6.10417 52.6042 6 53.1875 6C55.0625 6 56.5417 6.58333 57.625 7.75C58.75 8.875 59.3125 10.375 59.3125 12.25C59.3125 15 59.25 17.75 59.125 20.5C59 23.25 58.9375 26 58.9375 28.75C58.9375 29.9583 58.9375 31.7292 58.9375 34.0625C58.9792 36.3958 59.0625 39.0625 59.1875 42.0625C59.3125 45.0208 59.5 48.2083 59.75 51.625C60 55.0417 60.3333 58.4375 60.75 61.8125C61.2083 65.1458 61.7708 68.375 62.4375 71.5C63.1042 74.5833 63.8958 77.3125 64.8125 79.6875C65.7708 82.0625 66.875 83.9583 68.125 85.375C69.375 86.7917 70.8125 87.5 72.4375 87.5C73.9792 87.5 75.3125 86.8958 76.4375 85.6875C77.6042 84.4792 78.5625 82.9375 79.3125 81.0625C80.1042 79.1458 80.7292 77.0208 81.1875 74.6875C81.6875 72.3542 82.0625 70.0625 82.3125 67.8125C82.5625 65.5208 82.7292 63.4167 82.8125 61.5C82.8958 59.5417 82.9375 58 82.9375 56.875C82.9375 54.5833 82.875 52.0417 82.75 49.25C82.6667 46.4167 82.5208 43.4792 82.3125 40.4375C82.1458 37.3958 81.8958 34.2917 81.5625 31.125C81.2292 27.9583 80.8333 24.8958 80.375 21.9375C79.9167 18.9375 79.375 16.0833 78.75 13.375C78.1667 10.6667 77.4792 8.25 76.6875 6.125C76.5625 5.75 76.3542 5.27083 76.0625 4.6875C75.8125 4.10417 75.6875 3.625 75.6875 3.25C75.6875 2.58333 75.8333 2.08333 76.125 1.75C76.4583 1.41667 76.8542 1.1875 77.3125 1.0625C77.7708 0.895833 78.2708 0.8125 78.8125 0.8125C79.3542 0.770833 79.8542 0.75 80.3125 0.75C81.3125 0.75 82.125 0.791667 82.75 0.875C83.4167 0.958333 84.1875 1.25 85.0625 1.75C85.6458 2.08333 86.1875 3 86.6875 4.5C87.2292 6 87.7292 7.89583 88.1875 10.1875C88.6458 12.4792 89.0625 15.0833 89.4375 18C89.8542 20.875 90.2292 23.8542 90.5625 26.9375C90.8958 29.9792 91.1875 33.0208 91.4375 36.0625C91.6875 39.1042 91.8958 41.9167 92.0625 44.5C92.2292 47.0833 92.3542 49.3542 92.4375 51.3125C92.5208 53.2708 92.5625 54.7083 92.5625 55.625ZM140.875 88.875C140.875 89.625 140.792 90.375 140.625 91.125C140.5 91.8333 140.25 92.4792 139.875 93.0625C139.542 93.6042 139.083 94.0417 138.5 94.375C137.917 94.7083 137.167 94.875 136.25 94.875C135.125 94.875 134.208 94.625 133.5 94.125C132.833 93.6667 132.208 93 131.625 92.125C130.833 91 130.125 89.7083 129.5 88.25C128.875 86.75 128.312 85.2292 127.812 83.6875C127.312 82.1042 126.833 80.5417 126.375 79C125.958 77.4167 125.542 75.9583 125.125 74.625C122.875 67.625 120.771 60.6458 118.812 53.6875C116.896 46.7292 114.833 39.75 112.625 32.75C112.417 41.7917 112.25 50.7917 112.125 59.75C112.042 68.7083 112 77.7083 112 86.75C112 87.2083 111.979 87.7292 111.938 88.3125C111.896 88.8958 111.792 89.4583 111.625 90C111.458 90.5 111.188 90.9375 110.812 91.3125C110.479 91.6875 110 91.875 109.375 91.875C107.25 91.875 105.625 91.3125 104.5 90.1875C103.417 89.0208 102.875 87.375 102.875 85.25C102.875 73.5417 102.896 61.9375 102.938 50.4375C102.979 38.9375 103 27.375 103 15.75V6.875C103 5.91667 103.167 5.125 103.5 4.5C103.875 3.83333 104.667 3.5 105.875 3.5C106.708 3.5 107.562 3.625 108.438 3.875C109.312 4.08333 110.083 4.41667 110.75 4.875C111.458 5.33333 112.021 5.9375 112.438 6.6875C112.896 7.39583 113.125 8.25 113.125 9.25C114.875 12.5833 116.333 16.0208 117.5 19.5625C118.708 23.1042 119.875 26.6667 121 30.25C122.625 35.4583 124.229 40.6667 125.812 45.875C127.396 51.0833 129 56.3333 130.625 61.625C130.375 53.75 130.104 45.8958 129.812 38.0625C129.562 30.1875 129.042 22.3333 128.25 14.5C128.042 12.7917 127.792 11.125 127.5 9.5C127.25 7.875 127.125 6.20833 127.125 4.5C127.125 3.625 127.417 3.04167 128 2.75C128.583 2.41667 129.25 2.25 130 2.25C131.292 2.25 132.396 2.35417 133.312 2.5625C134.229 2.77083 135 3.125 135.625 3.625C136.25 4.125 136.729 4.8125 137.062 5.6875C137.396 6.52083 137.667 7.58333 137.875 8.875C138.125 11.125 138.312 13.3958 138.438 15.6875C138.604 17.9375 138.75 20.1667 138.875 22.375C139.25 27.9583 139.521 33.5 139.688 39C139.854 44.5 140 50.0417 140.125 55.625C140.25 61.1667 140.396 66.7083 140.562 72.25C140.771 77.75 140.875 83.2917 140.875 88.875ZM189.062 74.25C189.062 77.3333 188.562 80.25 187.562 83C186.562 85.75 185.125 88.1667 183.25 90.25C181.417 92.2917 179.188 93.9167 176.562 95.125C173.938 96.375 171.021 97 167.812 97C164.979 97 162.354 96.5417 159.938 95.625C157.562 94.75 155.5 93.5 153.75 91.875C152 90.25 150.625 88.2708 149.625 85.9375C148.667 83.6042 148.188 81 148.188 78.125C148.188 77.5417 148.208 76.8125 148.25 75.9375C148.292 75.0625 148.417 74.2292 148.625 73.4375C148.875 72.6042 149.208 71.9167 149.625 71.375C150.083 70.7917 150.729 70.5 151.562 70.5C152.229 70.5 152.958 70.6458 153.75 70.9375C154.583 71.1875 155.354 71.5417 156.062 72C156.771 72.4583 157.354 73.0208 157.812 73.6875C158.312 74.3125 158.562 75 158.562 75.75V79.375C158.562 82.25 159.333 84.6042 160.875 86.4375C162.458 88.2292 164.729 89.125 167.688 89.125C169.771 89.125 171.562 88.6458 173.062 87.6875C174.562 86.7292 175.771 85.5 176.688 84C177.646 82.5 178.333 80.8333 178.75 79C179.208 77.125 179.438 75.2917 179.438 73.5C179.438 70 178.708 66.6042 177.25 63.3125C175.833 60.0208 174.042 56.8125 171.875 53.6875C169.708 50.5208 167.354 47.4167 164.812 44.375C162.271 41.3333 159.917 38.3125 157.75 35.3125C155.583 32.3125 153.771 29.3125 152.312 26.3125C150.896 23.3125 150.188 20.25 150.188 17.125C150.188 14.5833 150.688 12.3958 151.688 10.5625C152.729 8.6875 154.083 7.16667 155.75 6C157.458 4.79167 159.375 3.91667 161.5 3.375C163.667 2.79167 165.896 2.5 168.188 2.5C170.979 2.5 173.479 2.89583 175.688 3.6875C177.896 4.47917 179.771 5.625 181.312 7.125C182.854 8.625 184.021 10.4792 184.812 12.6875C185.646 14.8542 186.062 17.3333 186.062 20.125C186.062 20.5417 186.042 21.0625 186 21.6875C185.958 22.3125 185.854 22.9375 185.688 23.5625C185.521 24.1458 185.271 24.6667 184.938 25.125C184.604 25.5417 184.146 25.75 183.562 25.75C182.729 25.75 181.896 25.5417 181.062 25.125C180.354 24.75 179.771 24.3958 179.312 24.0625C178.896 23.6875 178.562 23.2917 178.312 22.875C178.062 22.4167 177.875 21.9167 177.75 21.375C177.625 20.8333 177.521 20.1667 177.438 19.375C177.229 17.875 176.958 16.5208 176.625 15.3125C176.292 14.1042 175.792 13.0833 175.125 12.25C174.458 11.4167 173.583 10.7708 172.5 10.3125C171.417 9.85417 170.021 9.625 168.312 9.625C167.104 9.625 165.938 9.75 164.812 10C163.729 10.25 162.771 10.6667 161.938 11.25C161.146 11.8333 160.5 12.6042 160 13.5625C159.542 14.4792 159.312 15.625 159.312 17C159.312 18.9167 159.729 20.875 160.562 22.875C161.438 24.875 162.562 26.9167 163.938 29C165.354 31.0833 166.938 33.2292 168.688 35.4375C170.479 37.6042 172.312 39.8542 174.188 42.1875C176.062 44.5208 177.875 46.9375 179.625 49.4375C181.417 51.8958 183 54.4583 184.375 57.125C185.792 59.7917 186.917 62.5625 187.75 65.4375C188.625 68.2708 189.062 71.2083 189.062 74.25ZM243.375 45.375C243.375 47.25 242.896 48.5833 241.938 49.375C240.979 50.125 239.625 50.6667 237.875 51C238.25 57.4167 238.479 63.7917 238.562 70.125C238.688 76.4583 238.75 82.8333 238.75 89.25C238.75 90.25 238.542 91.0208 238.125 91.5625C237.708 92.1042 236.958 92.375 235.875 92.375C234.958 92.375 234.042 92.2708 233.125 92.0625C232.25 91.8542 231.458 91.5417 230.75 91.125C230.042 90.6667 229.458 90.0833 229 89.375C228.583 88.625 228.375 87.7083 228.375 86.625V67.125C228.375 64.6667 228.375 62.2083 228.375 59.75C228.375 57.2917 228.333 54.8333 228.25 52.375C224.667 52.875 221.083 53.3125 217.5 53.6875C213.917 54.0208 210.333 54.25 206.75 54.375C206.875 63.25 207.125 72.125 207.5 81C207.625 82.8333 207.75 84.625 207.875 86.375C208.042 88.125 208.125 89.875 208.125 91.625C208.125 92.4583 207.896 93.0833 207.438 93.5C206.979 93.9167 206.333 94.125 205.5 94.125C204.875 94.125 204.208 94.0833 203.5 94C202.792 93.875 202.083 93.6875 201.375 93.4375C200.708 93.1875 200.083 92.875 199.5 92.5C198.917 92.125 198.458 91.6667 198.125 91.125C198 90.9167 197.896 90.2917 197.812 89.25C197.729 88.2083 197.646 86.8958 197.562 85.3125C197.521 83.7292 197.479 81.9375 197.438 79.9375C197.396 77.9375 197.375 75.875 197.375 73.75C197.375 71.625 197.375 69.5417 197.375 67.5C197.375 65.4167 197.375 63.5 197.375 61.75C197.375 60 197.375 58.4792 197.375 57.1875C197.375 55.8958 197.375 55 197.375 54.5C196.792 54.5 196.271 54.375 195.812 54.125C195.354 53.8333 195.125 53.375 195.125 52.75C195.125 52 195.333 51.2917 195.75 50.625C196.208 49.9167 196.75 49.3333 197.375 48.875V11.125C197.375 10.2917 197.521 9.625 197.812 9.125C198.146 8.625 198.75 8.375 199.625 8.375C201.042 8.375 202.167 8.58333 203 9C203.875 9.41667 204.521 10 204.938 10.75C205.396 11.4583 205.688 12.3333 205.812 13.375C205.979 14.375 206.083 15.4583 206.125 16.625C206.25 21.7083 206.333 26.7917 206.375 31.875C206.417 36.9583 206.5 42.0417 206.625 47.125C210.208 46.7917 213.771 46.4583 217.312 46.125C220.854 45.75 224.417 45.2083 228 44.5C227.792 40.0833 227.521 35.7083 227.188 31.375C226.896 27.0417 226.458 22.6667 225.875 18.25C225.542 16.1667 225.146 14.1042 224.688 12.0625C224.229 9.97917 224 7.875 224 5.75C224 5 224.271 4.52083 224.812 4.3125C225.396 4.10417 226 4 226.625 4C227.625 4 228.625 4.16667 229.625 4.5C230.667 4.83333 231.5 5.41667 232.125 6.25C232.5 6.79167 232.896 7.9375 233.312 9.6875C233.729 11.3958 234.104 13.4375 234.438 15.8125C234.812 18.1875 235.167 20.75 235.5 23.5C235.833 26.25 236.125 28.8958 236.375 31.4375C236.625 33.9375 236.833 36.2083 237 38.25C237.208 40.25 237.333 41.7083 237.375 42.625C237.875 42.5 238.396 42.3958 238.938 42.3125C239.479 42.1875 240 42.125 240.5 42.125C241.5 42.125 242.229 42.4375 242.688 43.0625C243.146 43.6458 243.375 44.4167 243.375 45.375ZM285.688 85C285.688 86.2083 285.375 87.3542 284.75 88.4375C284.125 89.4792 283.271 90.25 282.188 90.75C281.854 90.9167 281.042 91.0833 279.75 91.25C278.458 91.375 277.062 91.5 275.562 91.625C274.062 91.75 272.625 91.875 271.25 92C269.917 92.125 268.979 92.2083 268.438 92.25C268.312 92.9583 267.979 93.4583 267.438 93.75C266.896 94 266.312 94.125 265.688 94.125C264.979 94.125 264.167 94.0208 263.25 93.8125C262.333 93.6042 261.521 93.375 260.812 93.125C258.938 93.375 257.042 93.6458 255.125 93.9375C253.208 94.2292 251.271 94.375 249.312 94.375C247.812 94.375 247.062 93.6667 247.062 92.25C247.062 90.8333 247.458 89.75 248.25 89C249.042 88.25 250 87.6875 251.125 87.3125C252.25 86.9375 253.458 86.6875 254.75 86.5625C256.042 86.4375 257.188 86.2917 258.188 86.125C257.979 74.2917 257.75 62.5417 257.5 50.875C257.292 39.2083 257.188 27.4583 257.188 15.625C255.479 15.75 253.812 15.875 252.188 16C250.562 16.0833 248.938 16.125 247.312 16.125C246.979 16.125 246.625 16.125 246.25 16.125C245.875 16.0833 245.521 16.0208 245.188 15.9375C244.896 15.8125 244.646 15.6458 244.438 15.4375C244.188 15.1875 244.062 14.8333 244.062 14.375C244.062 13.5833 244.229 12.8958 244.562 12.3125C244.896 11.6875 245.333 11.1875 245.875 10.8125C246.458 10.3958 247.083 10.0625 247.75 9.8125C248.417 9.5625 249.104 9.375 249.812 9.25C251.604 8.91667 253.417 8.64583 255.25 8.4375C257.125 8.1875 258.979 7.95833 260.812 7.75C262.688 7.5 264.542 7.25 266.375 7C268.25 6.75 270.104 6.41667 271.938 6C273.688 5.625 275.438 5.14583 277.188 4.5625C278.938 3.9375 280.729 3.625 282.562 3.625C283.562 3.625 284.229 4 284.562 4.75C284.896 5.45833 285.062 6.25 285.062 7.125C285.062 7.83333 284.979 8.52083 284.812 9.1875C284.688 9.8125 284.396 10.4167 283.938 11C283.688 11.3333 283.125 11.6667 282.25 12C281.417 12.2917 280.396 12.5625 279.188 12.8125C278.021 13.0625 276.75 13.3125 275.375 13.5625C274.042 13.7708 272.729 13.9792 271.438 14.1875C270.188 14.3542 269.042 14.5 268 14.625C266.958 14.75 266.188 14.8333 265.688 14.875C266.146 20.6667 266.458 26.4583 266.625 32.25C266.833 38.0417 267 43.8333 267.125 49.625C267.25 55.4167 267.375 61.2083 267.5 67C267.625 72.7917 267.854 78.5833 268.188 84.375C270.562 84 272.958 83.6458 275.375 83.3125C277.792 82.9375 280.229 82.75 282.688 82.75C283.396 82.75 284.062 82.9167 284.688 83.25C285.354 83.5417 285.688 84.125 285.688 85ZM330.25 88.875C330.25 89.625 330.167 90.375 330 91.125C329.875 91.8333 329.625 92.4792 329.25 93.0625C328.917 93.6042 328.458 94.0417 327.875 94.375C327.292 94.7083 326.542 94.875 325.625 94.875C324.5 94.875 323.583 94.625 322.875 94.125C322.208 93.6667 321.583 93 321 92.125C320.208 91 319.5 89.7083 318.875 88.25C318.25 86.75 317.688 85.2292 317.188 83.6875C316.688 82.1042 316.208 80.5417 315.75 79C315.333 77.4167 314.917 75.9583 314.5 74.625C312.25 67.625 310.146 60.6458 308.188 53.6875C306.271 46.7292 304.208 39.75 302 32.75C301.792 41.7917 301.625 50.7917 301.5 59.75C301.417 68.7083 301.375 77.7083 301.375 86.75C301.375 87.2083 301.354 87.7292 301.312 88.3125C301.271 88.8958 301.167 89.4583 301 90C300.833 90.5 300.562 90.9375 300.188 91.3125C299.854 91.6875 299.375 91.875 298.75 91.875C296.625 91.875 295 91.3125 293.875 90.1875C292.792 89.0208 292.25 87.375 292.25 85.25C292.25 73.5417 292.271 61.9375 292.312 50.4375C292.354 38.9375 292.375 27.375 292.375 15.75V6.875C292.375 5.91667 292.542 5.125 292.875 4.5C293.25 3.83333 294.042 3.5 295.25 3.5C296.083 3.5 296.938 3.625 297.812 3.875C298.688 4.08333 299.458 4.41667 300.125 4.875C300.833 5.33333 301.396 5.9375 301.812 6.6875C302.271 7.39583 302.5 8.25 302.5 9.25C304.25 12.5833 305.708 16.0208 306.875 19.5625C308.083 23.1042 309.25 26.6667 310.375 30.25C312 35.4583 313.604 40.6667 315.188 45.875C316.771 51.0833 318.375 56.3333 320 61.625C319.75 53.75 319.479 45.8958 319.188 38.0625C318.938 30.1875 318.417 22.3333 317.625 14.5C317.417 12.7917 317.167 11.125 316.875 9.5C316.625 7.875 316.5 6.20833 316.5 4.5C316.5 3.625 316.792 3.04167 317.375 2.75C317.958 2.41667 318.625 2.25 319.375 2.25C320.667 2.25 321.771 2.35417 322.688 2.5625C323.604 2.77083 324.375 3.125 325 3.625C325.625 4.125 326.104 4.8125 326.438 5.6875C326.771 6.52083 327.042 7.58333 327.25 8.875C327.5 11.125 327.688 13.3958 327.812 15.6875C327.979 17.9375 328.125 20.1667 328.25 22.375C328.625 27.9583 328.896 33.5 329.062 39C329.229 44.5 329.375 50.0417 329.5 55.625C329.625 61.1667 329.771 66.7083 329.938 72.25C330.146 77.75 330.25 83.2917 330.25 88.875ZM383.875 80.375C383.875 81.0833 383.583 81.7708 383 82.4375C382.458 83.1042 381.792 83.75 381 84.375C380.208 85 379.396 85.5833 378.562 86.125C377.729 86.625 377.042 87.0417 376.5 87.375C375.083 88.2917 373.667 89.1458 372.25 89.9375C370.875 90.7292 369.438 91.4167 367.938 92C366.479 92.5833 364.958 93.0417 363.375 93.375C361.833 93.7083 360.208 93.875 358.5 93.875L357.5 94C356.125 94 354.75 93.8542 353.375 93.5625C352.042 93.2292 350.792 92.75 349.625 92.125C348.458 91.4583 347.417 90.625 346.5 89.625C345.583 88.625 344.875 87.4167 344.375 86C344 84.875 343.708 83.5417 343.5 82C343.292 80.4583 343.125 78.8542 343 77.1875C342.917 75.5208 342.833 73.8958 342.75 72.3125C342.708 70.6875 342.667 69.25 342.625 68C342 55.25 341.5 42.5 341.125 29.75C341.042 28.2917 340.979 26.8333 340.938 25.375C340.896 23.9167 340.875 22.4583 340.875 21C340.875 18.5 341.021 16.375 341.312 14.625C341.604 12.875 342.188 11.4375 343.062 10.3125C343.938 9.1875 345.188 8.375 346.812 7.875C348.479 7.375 350.667 7.125 353.375 7.125C356.083 7.125 358.792 7.14583 361.5 7.1875C364.25 7.22917 367 7.25 369.75 7.25C370.583 7.25 371.417 7.22917 372.25 7.1875C373.083 7.10417 373.917 7.16667 374.75 7.375C375.25 7.45833 375.688 7.60417 376.062 7.8125C376.438 7.97917 376.625 8.375 376.625 9C376.625 10.5 376.125 11.625 375.125 12.375C374.125 13.0833 372.938 13.5625 371.562 13.8125C370.188 14.0625 368.75 14.1875 367.25 14.1875C365.792 14.1458 364.583 14.125 363.625 14.125H355.5C354.667 14.125 353.833 14.125 353 14.125C352.167 14.125 351.333 14.1667 350.5 14.25C350.25 14.875 350.083 15.5208 350 16.1875C349.917 16.8542 349.875 17.5417 349.875 18.25C349.875 22.7917 349.979 27.2708 350.188 31.6875C350.438 36.1042 350.667 40.5833 350.875 45.125C353.458 44.9167 356.021 44.6667 358.562 44.375C361.104 44.0833 363.667 43.75 366.25 43.375C366.625 43.375 366.958 43.3542 367.25 43.3125C367.583 43.2708 367.917 43.25 368.25 43.25C369.125 43.25 369.729 43.4792 370.062 43.9375C370.438 44.3958 370.625 45.0417 370.625 45.875C370.625 46.4583 370.583 47 370.5 47.5C370.458 48 370.333 48.5 370.125 49C369.833 49.8333 369.354 50.4375 368.688 50.8125C368.021 51.1875 367.271 51.4583 366.438 51.625C365.604 51.75 364.729 51.8125 363.812 51.8125C362.938 51.8125 362.167 51.8333 361.5 51.875C359.75 51.9583 358.021 52.0208 356.312 52.0625C354.646 52.1042 352.958 52.1667 351.25 52.25C351.292 53.125 351.354 54.4375 351.438 56.1875C351.521 57.9375 351.604 59.9167 351.688 62.125C351.812 64.2917 351.938 66.5417 352.062 68.875C352.229 71.2083 352.396 73.4167 352.562 75.5C352.729 77.5417 352.917 79.3333 353.125 80.875C353.333 82.4167 353.542 83.4583 353.75 84C354.208 84.875 354.729 85.4583 355.312 85.75C355.896 86 356.667 86.125 357.625 86.125C359.167 86.125 360.792 85.8333 362.5 85.25C364.208 84.625 365.875 83.8542 367.5 82.9375C369.125 81.9792 370.667 80.9375 372.125 79.8125C373.625 78.6875 374.917 77.5833 376 76.5C376.458 76.125 376.917 75.75 377.375 75.375C377.833 74.9583 378.375 74.75 379 74.75C379.625 74.75 380.229 74.9375 380.812 75.3125C381.396 75.6875 381.917 76.1667 382.375 76.75C382.833 77.2917 383.188 77.8958 383.438 78.5625C383.729 79.2292 383.875 79.8333 383.875 80.375Z" fill="black"/>
<path d="M105.5 198.75C105.5 199.25 105.25 199.667 104.75 200C104.25 200.333 103.646 200.604 102.938 200.812C102.271 201.021 101.583 201.167 100.875 201.25C100.208 201.333 99.7083 201.375 99.375 201.375C98.5417 201.375 97.8542 201.292 97.3125 201.125C96.8125 201 96.2083 200.75 95.5 200.375C95.2917 200.25 94.7917 199.729 94 198.812C93.25 197.854 92.2917 196.625 91.125 195.125C90 193.625 88.7083 191.917 87.25 190C85.8333 188.083 84.3542 186.125 82.8125 184.125C81.3125 182.083 79.8125 180.062 78.3125 178.062C76.8542 176.021 75.5 174.167 74.25 172.5C73 170.792 71.9167 169.312 71 168.062C70.125 166.771 69.5 165.875 69.125 165.375L68.75 165.5C69 170.458 69.3125 175.417 69.6875 180.375C70.1042 185.292 70.7917 190.167 71.75 195C71.875 195.5 72 196.021 72.125 196.562C72.2917 197.104 72.375 197.667 72.375 198.25C72.375 199.208 72.0625 199.812 71.4375 200.062C70.8125 200.354 70.125 200.5 69.375 200.5C68.9583 200.5 68.4583 200.479 67.875 200.438C67.2917 200.396 66.6875 200.312 66.0625 200.188C65.4375 200.062 64.8542 199.896 64.3125 199.688C63.8125 199.521 63.4167 199.292 63.125 199C62.5417 198.5 62.1667 197.979 62 197.438C61.875 196.896 61.75 196.25 61.625 195.5C60.4167 187.125 59.6458 178.729 59.3125 170.312C59.0208 161.854 58.875 153.417 58.875 145C58.875 141.333 58.8958 137.729 58.9375 134.188C58.9792 130.646 59.0417 127.042 59.125 123.375C58.625 123.333 58.1458 123.167 57.6875 122.875C57.2708 122.583 56.8958 122.229 56.5625 121.812C56.2292 121.354 55.9583 120.896 55.75 120.438C55.5833 119.938 55.5 119.458 55.5 119C55.5 118.542 55.6042 118.083 55.8125 117.625C56.0625 117.167 56.3542 116.75 56.6875 116.375C57.0625 116 57.4583 115.646 57.875 115.312C58.2917 114.979 58.6667 114.708 59 114.5V113.375C59 112.958 59 112.479 59 111.938C59.0417 111.396 59.125 110.896 59.25 110.438C59.4167 109.938 59.6667 109.542 60 109.25C60.3333 108.917 60.8333 108.75 61.5 108.75C62.375 108.75 63.25 108.896 64.125 109.188C65 109.479 65.75 110 66.375 110.75C69.5 109.5 72.7917 108.875 76.25 108.875C79.2917 108.875 82.0625 109.479 84.5625 110.688C87.0625 111.896 89.1875 113.521 90.9375 115.562C92.7292 117.604 94.1042 119.958 95.0625 122.625C96.0208 125.292 96.5 128.083 96.5 131C96.5 134.125 95.9167 137.167 94.75 140.125C93.5833 143.042 92.0625 145.812 90.1875 148.438C88.3125 151.062 86.1667 153.479 83.75 155.688C81.375 157.854 78.9583 159.75 76.5 161.375C80.4167 166.583 84.375 171.75 88.375 176.875C92.4167 181.958 96.5417 187.042 100.75 192.125C101 192.417 101.375 192.854 101.875 193.438C102.417 194.021 102.958 194.667 103.5 195.375C104.042 196.042 104.5 196.688 104.875 197.312C105.292 197.938 105.5 198.417 105.5 198.75ZM87.25 130C87.25 128.458 86.9792 126.854 86.4375 125.188C85.8958 123.521 85.125 122.021 84.125 120.688C83.125 119.312 81.9167 118.188 80.5 117.312C79.125 116.438 77.5833 116 75.875 116C74.5 116 73.125 116.208 71.75 116.625C70.4167 117 69.125 117.5 67.875 118.125C67.9583 124.333 68.0208 130.542 68.0625 136.75C68.1458 142.958 68.25 149.167 68.375 155.375L69.5 155.5C71.6667 154.292 73.7917 152.771 75.875 150.938C78 149.104 79.8958 147.062 81.5625 144.812C83.2708 142.562 84.6458 140.188 85.6875 137.688C86.7292 135.146 87.25 132.583 87.25 130ZM148.875 185.375C148.875 186.083 148.583 186.771 148 187.438C147.458 188.104 146.792 188.75 146 189.375C145.208 190 144.396 190.583 143.562 191.125C142.729 191.625 142.042 192.042 141.5 192.375C140.083 193.292 138.667 194.146 137.25 194.938C135.875 195.729 134.438 196.417 132.938 197C131.479 197.583 129.958 198.042 128.375 198.375C126.833 198.708 125.208 198.875 123.5 198.875L122.5 199C121.125 199 119.75 198.854 118.375 198.562C117.042 198.229 115.792 197.75 114.625 197.125C113.458 196.458 112.417 195.625 111.5 194.625C110.583 193.625 109.875 192.417 109.375 191C109 189.875 108.708 188.542 108.5 187C108.292 185.458 108.125 183.854 108 182.188C107.917 180.521 107.833 178.896 107.75 177.312C107.708 175.688 107.667 174.25 107.625 173C107 160.25 106.5 147.5 106.125 134.75C106.042 133.292 105.979 131.833 105.938 130.375C105.896 128.917 105.875 127.458 105.875 126C105.875 123.5 106.021 121.375 106.312 119.625C106.604 117.875 107.188 116.438 108.062 115.312C108.938 114.188 110.188 113.375 111.812 112.875C113.479 112.375 115.667 112.125 118.375 112.125C121.083 112.125 123.792 112.146 126.5 112.188C129.25 112.229 132 112.25 134.75 112.25C135.583 112.25 136.417 112.229 137.25 112.188C138.083 112.104 138.917 112.167 139.75 112.375C140.25 112.458 140.688 112.604 141.062 112.812C141.438 112.979 141.625 113.375 141.625 114C141.625 115.5 141.125 116.625 140.125 117.375C139.125 118.083 137.938 118.562 136.562 118.812C135.188 119.062 133.75 119.188 132.25 119.188C130.792 119.146 129.583 119.125 128.625 119.125H120.5C119.667 119.125 118.833 119.125 118 119.125C117.167 119.125 116.333 119.167 115.5 119.25C115.25 119.875 115.083 120.521 115 121.188C114.917 121.854 114.875 122.542 114.875 123.25C114.875 127.792 114.979 132.271 115.188 136.688C115.438 141.104 115.667 145.583 115.875 150.125C118.458 149.917 121.021 149.667 123.562 149.375C126.104 149.083 128.667 148.75 131.25 148.375C131.625 148.375 131.958 148.354 132.25 148.312C132.583 148.271 132.917 148.25 133.25 148.25C134.125 148.25 134.729 148.479 135.062 148.938C135.438 149.396 135.625 150.042 135.625 150.875C135.625 151.458 135.583 152 135.5 152.5C135.458 153 135.333 153.5 135.125 154C134.833 154.833 134.354 155.438 133.688 155.812C133.021 156.188 132.271 156.458 131.438 156.625C130.604 156.75 129.729 156.812 128.812 156.812C127.938 156.812 127.167 156.833 126.5 156.875C124.75 156.958 123.021 157.021 121.312 157.062C119.646 157.104 117.958 157.167 116.25 157.25C116.292 158.125 116.354 159.438 116.438 161.188C116.521 162.938 116.604 164.917 116.688 167.125C116.812 169.292 116.938 171.542 117.062 173.875C117.229 176.208 117.396 178.417 117.562 180.5C117.729 182.542 117.917 184.333 118.125 185.875C118.333 187.417 118.542 188.458 118.75 189C119.208 189.875 119.729 190.458 120.312 190.75C120.896 191 121.667 191.125 122.625 191.125C124.167 191.125 125.792 190.833 127.5 190.25C129.208 189.625 130.875 188.854 132.5 187.938C134.125 186.979 135.667 185.938 137.125 184.812C138.625 183.688 139.917 182.583 141 181.5C141.458 181.125 141.917 180.75 142.375 180.375C142.833 179.958 143.375 179.75 144 179.75C144.625 179.75 145.229 179.938 145.812 180.312C146.396 180.688 146.917 181.167 147.375 181.75C147.833 182.292 148.188 182.896 148.438 183.562C148.729 184.229 148.875 184.833 148.875 185.375ZM197.562 180.5C197.562 181.125 197.458 181.75 197.25 182.375C197.083 182.958 196.896 183.542 196.688 184.125C195.771 186.5 194.646 188.708 193.312 190.75C191.979 192.75 190.438 194.479 188.688 195.938C186.938 197.396 184.958 198.542 182.75 199.375C180.542 200.208 178.104 200.625 175.438 200.625C171.896 200.625 168.854 199.875 166.312 198.375C163.771 196.875 161.604 194.938 159.812 192.562C158.021 190.146 156.542 187.458 155.375 184.5C154.25 181.542 153.354 178.583 152.688 175.625C151.688 171.333 150.917 167.042 150.375 162.75C149.833 158.417 149.562 154.083 149.562 149.75C149.562 147.208 149.667 144.583 149.875 141.875C150.125 139.167 150.542 136.5 151.125 133.875C151.708 131.208 152.5 128.646 153.5 126.188C154.5 123.688 155.75 121.396 157.25 119.312C158.75 117.188 160.521 115.312 162.562 113.688C164.646 112.062 167.062 110.792 169.812 109.875C170.812 109.5 171.854 109.25 172.938 109.125C174.021 108.958 175.104 108.875 176.188 108.875C178.354 108.875 180.417 109.229 182.375 109.938C184.333 110.646 186.042 111.646 187.5 112.938C189 114.229 190.167 115.792 191 117.625C191.875 119.458 192.312 121.5 192.312 123.75C192.312 124.5 192.146 125.062 191.812 125.438C191.479 125.812 190.896 126 190.062 126C188.521 126 187.312 125.75 186.438 125.25C185.604 124.75 184.917 124.125 184.375 123.375C183.833 122.625 183.375 121.812 183 120.938C182.667 120.062 182.25 119.25 181.75 118.5C181.25 117.75 180.583 117.125 179.75 116.625C178.917 116.125 177.771 115.875 176.312 115.875C174.854 115.875 173.479 116.167 172.188 116.75C170.938 117.292 169.771 118.021 168.688 118.938C167.646 119.854 166.688 120.896 165.812 122.062C164.979 123.188 164.229 124.333 163.562 125.5C161.812 128.75 160.583 132.229 159.875 135.938C159.167 139.604 158.812 143.292 158.812 147C158.812 148.25 158.854 149.875 158.938 151.875C159.062 153.833 159.229 156 159.438 158.375C159.688 160.75 160.021 163.271 160.438 165.938C160.854 168.562 161.354 171.146 161.938 173.688C162.562 176.229 163.292 178.667 164.125 181C165 183.333 165.979 185.375 167.062 187.125C168.188 188.875 169.438 190.271 170.812 191.312C172.229 192.354 173.812 192.875 175.562 192.875C177.354 192.875 178.938 192.417 180.312 191.5C181.688 190.542 182.854 189.354 183.812 187.938C184.812 186.479 185.625 184.917 186.25 183.25C186.917 181.542 187.438 179.958 187.812 178.5C187.938 178.083 188.042 177.708 188.125 177.375C188.25 177.042 188.396 176.75 188.562 176.5C188.771 176.25 189.021 176.062 189.312 175.938C189.604 175.812 190.021 175.75 190.562 175.75C191.146 175.75 191.833 175.875 192.625 176.125C193.458 176.333 194.229 176.646 194.938 177.062C195.688 177.479 196.312 177.979 196.812 178.562C197.312 179.146 197.562 179.792 197.562 180.5ZM250.625 198.75C250.625 199.25 250.375 199.667 249.875 200C249.375 200.333 248.771 200.604 248.062 200.812C247.396 201.021 246.708 201.167 246 201.25C245.333 201.333 244.833 201.375 244.5 201.375C243.667 201.375 242.979 201.292 242.438 201.125C241.938 201 241.333 200.75 240.625 200.375C240.417 200.25 239.917 199.729 239.125 198.812C238.375 197.854 237.417 196.625 236.25 195.125C235.125 193.625 233.833 191.917 232.375 190C230.958 188.083 229.479 186.125 227.938 184.125C226.438 182.083 224.938 180.062 223.438 178.062C221.979 176.021 220.625 174.167 219.375 172.5C218.125 170.792 217.042 169.312 216.125 168.062C215.25 166.771 214.625 165.875 214.25 165.375L213.875 165.5C214.125 170.458 214.438 175.417 214.812 180.375C215.229 185.292 215.917 190.167 216.875 195C217 195.5 217.125 196.021 217.25 196.562C217.417 197.104 217.5 197.667 217.5 198.25C217.5 199.208 217.188 199.812 216.562 200.062C215.938 200.354 215.25 200.5 214.5 200.5C214.083 200.5 213.583 200.479 213 200.438C212.417 200.396 211.812 200.312 211.188 200.188C210.562 200.062 209.979 199.896 209.438 199.688C208.938 199.521 208.542 199.292 208.25 199C207.667 198.5 207.292 197.979 207.125 197.438C207 196.896 206.875 196.25 206.75 195.5C205.542 187.125 204.771 178.729 204.438 170.312C204.146 161.854 204 153.417 204 145C204 141.333 204.021 137.729 204.062 134.188C204.104 130.646 204.167 127.042 204.25 123.375C203.75 123.333 203.271 123.167 202.812 122.875C202.396 122.583 202.021 122.229 201.688 121.812C201.354 121.354 201.083 120.896 200.875 120.438C200.708 119.938 200.625 119.458 200.625 119C200.625 118.542 200.729 118.083 200.938 117.625C201.188 117.167 201.479 116.75 201.812 116.375C202.188 116 202.583 115.646 203 115.312C203.417 114.979 203.792 114.708 204.125 114.5V113.375C204.125 112.958 204.125 112.479 204.125 111.938C204.167 111.396 204.25 110.896 204.375 110.438C204.542 109.938 204.792 109.542 205.125 109.25C205.458 108.917 205.958 108.75 206.625 108.75C207.5 108.75 208.375 108.896 209.25 109.188C210.125 109.479 210.875 110 211.5 110.75C214.625 109.5 217.917 108.875 221.375 108.875C224.417 108.875 227.188 109.479 229.688 110.688C232.188 111.896 234.312 113.521 236.062 115.562C237.854 117.604 239.229 119.958 240.188 122.625C241.146 125.292 241.625 128.083 241.625 131C241.625 134.125 241.042 137.167 239.875 140.125C238.708 143.042 237.188 145.812 235.312 148.438C233.438 151.062 231.292 153.479 228.875 155.688C226.5 157.854 224.083 159.75 221.625 161.375C225.542 166.583 229.5 171.75 233.5 176.875C237.542 181.958 241.667 187.042 245.875 192.125C246.125 192.417 246.5 192.854 247 193.438C247.542 194.021 248.083 194.667 248.625 195.375C249.167 196.042 249.625 196.688 250 197.312C250.417 197.938 250.625 198.417 250.625 198.75ZM232.375 130C232.375 128.458 232.104 126.854 231.562 125.188C231.021 123.521 230.25 122.021 229.25 120.688C228.25 119.312 227.042 118.188 225.625 117.312C224.25 116.438 222.708 116 221 116C219.625 116 218.25 116.208 216.875 116.625C215.542 117 214.25 117.5 213 118.125C213.083 124.333 213.146 130.542 213.188 136.75C213.271 142.958 213.375 149.167 213.5 155.375L214.625 155.5C216.792 154.292 218.917 152.771 221 150.938C223.125 149.104 225.021 147.062 226.688 144.812C228.396 142.562 229.771 140.188 230.812 137.688C231.854 135.146 232.375 132.583 232.375 130ZM294 185.375C294 186.083 293.708 186.771 293.125 187.438C292.583 188.104 291.917 188.75 291.125 189.375C290.333 190 289.521 190.583 288.688 191.125C287.854 191.625 287.167 192.042 286.625 192.375C285.208 193.292 283.792 194.146 282.375 194.938C281 195.729 279.562 196.417 278.062 197C276.604 197.583 275.083 198.042 273.5 198.375C271.958 198.708 270.333 198.875 268.625 198.875L267.625 199C266.25 199 264.875 198.854 263.5 198.562C262.167 198.229 260.917 197.75 259.75 197.125C258.583 196.458 257.542 195.625 256.625 194.625C255.708 193.625 255 192.417 254.5 191C254.125 189.875 253.833 188.542 253.625 187C253.417 185.458 253.25 183.854 253.125 182.188C253.042 180.521 252.958 178.896 252.875 177.312C252.833 175.688 252.792 174.25 252.75 173C252.125 160.25 251.625 147.5 251.25 134.75C251.167 133.292 251.104 131.833 251.062 130.375C251.021 128.917 251 127.458 251 126C251 123.5 251.146 121.375 251.438 119.625C251.729 117.875 252.312 116.438 253.188 115.312C254.062 114.188 255.312 113.375 256.938 112.875C258.604 112.375 260.792 112.125 263.5 112.125C266.208 112.125 268.917 112.146 271.625 112.188C274.375 112.229 277.125 112.25 279.875 112.25C280.708 112.25 281.542 112.229 282.375 112.188C283.208 112.104 284.042 112.167 284.875 112.375C285.375 112.458 285.812 112.604 286.188 112.812C286.562 112.979 286.75 113.375 286.75 114C286.75 115.5 286.25 116.625 285.25 117.375C284.25 118.083 283.062 118.562 281.688 118.812C280.312 119.062 278.875 119.188 277.375 119.188C275.917 119.146 274.708 119.125 273.75 119.125H265.625C264.792 119.125 263.958 119.125 263.125 119.125C262.292 119.125 261.458 119.167 260.625 119.25C260.375 119.875 260.208 120.521 260.125 121.188C260.042 121.854 260 122.542 260 123.25C260 127.792 260.104 132.271 260.312 136.688C260.562 141.104 260.792 145.583 261 150.125C263.583 149.917 266.146 149.667 268.688 149.375C271.229 149.083 273.792 148.75 276.375 148.375C276.75 148.375 277.083 148.354 277.375 148.312C277.708 148.271 278.042 148.25 278.375 148.25C279.25 148.25 279.854 148.479 280.188 148.938C280.562 149.396 280.75 150.042 280.75 150.875C280.75 151.458 280.708 152 280.625 152.5C280.583 153 280.458 153.5 280.25 154C279.958 154.833 279.479 155.438 278.812 155.812C278.146 156.188 277.396 156.458 276.562 156.625C275.729 156.75 274.854 156.812 273.938 156.812C273.062 156.812 272.292 156.833 271.625 156.875C269.875 156.958 268.146 157.021 266.438 157.062C264.771 157.104 263.083 157.167 261.375 157.25C261.417 158.125 261.479 159.438 261.562 161.188C261.646 162.938 261.729 164.917 261.812 167.125C261.938 169.292 262.062 171.542 262.188 173.875C262.354 176.208 262.521 178.417 262.688 180.5C262.854 182.542 263.042 184.333 263.25 185.875C263.458 187.417 263.667 188.458 263.875 189C264.333 189.875 264.854 190.458 265.438 190.75C266.021 191 266.792 191.125 267.75 191.125C269.292 191.125 270.917 190.833 272.625 190.25C274.333 189.625 276 188.854 277.625 187.938C279.25 186.979 280.792 185.938 282.25 184.812C283.75 183.688 285.042 182.583 286.125 181.5C286.583 181.125 287.042 180.75 287.5 180.375C287.958 179.958 288.5 179.75 289.125 179.75C289.75 179.75 290.354 179.938 290.938 180.312C291.521 180.688 292.042 181.167 292.5 181.75C292.958 182.292 293.312 182.896 293.562 183.562C293.854 184.229 294 184.833 294 185.375ZM341.5 164.625C341.5 165.5 341.188 166.417 340.562 167.375C339.938 168.333 339.25 169.042 338.5 169.5C338.292 169.625 337.938 169.75 337.438 169.875C336.938 170 336.396 170.125 335.812 170.25C335.271 170.333 334.729 170.438 334.188 170.562C333.688 170.646 333.292 170.708 333 170.75L334.5 180C334.958 182.875 335.292 185.771 335.5 188.688C335.75 191.562 336.292 194.417 337.125 197.25C337.208 197.5 337.292 197.729 337.375 197.938C337.458 198.146 337.5 198.417 337.5 198.75C337.5 199.292 337.333 199.708 337 200C336.708 200.292 336.333 200.5 335.875 200.625C335.458 200.792 335 200.896 334.5 200.938C334 200.979 333.542 201 333.125 201H332.25C330.958 201 329.958 200.896 329.25 200.688C328.583 200.479 328.062 200.125 327.688 199.625C327.312 199.125 327.062 198.5 326.938 197.75C326.812 196.958 326.667 196 326.5 194.875C325.5 187.25 324.375 179.625 323.125 172C320.542 172.333 317.938 172.646 315.312 172.938C312.729 173.229 310.125 173.5 307.5 173.75L305.5 186C305.417 186.75 305.292 187.771 305.125 189.062C305 190.354 304.833 191.688 304.625 193.062C304.458 194.396 304.25 195.646 304 196.812C303.792 197.979 303.542 198.833 303.25 199.375C303 199.875 302.771 200.229 302.562 200.438C302.354 200.646 301.958 200.75 301.375 200.75C300.625 200.75 299.875 200.604 299.125 200.312C298.417 200.062 297.771 199.688 297.188 199.188C296.646 198.729 296.208 198.167 295.875 197.5C295.542 196.833 295.375 196.083 295.375 195.25C295.375 194.417 295.458 193.583 295.625 192.75C295.833 191.917 296 191.083 296.125 190.25C296.583 187.5 297 184.771 297.375 182.062C297.75 179.312 298.167 176.583 298.625 173.875C298.333 173.833 298 173.771 297.625 173.688C297.25 173.562 296.875 173.417 296.5 173.25C296.167 173.083 295.875 172.875 295.625 172.625C295.375 172.375 295.25 172.083 295.25 171.75C295.25 171.333 295.396 170.958 295.688 170.625C296.021 170.25 296.396 169.917 296.812 169.625C297.271 169.292 297.729 169.021 298.188 168.812C298.646 168.562 299.042 168.375 299.375 168.25C300.25 162.417 301.083 156.604 301.875 150.812C302.667 145.021 303.375 139.167 304 133.25C304.167 131.667 304.312 130.062 304.438 128.438C304.562 126.812 304.688 125.188 304.812 123.562C304.979 121.938 305.167 120.333 305.375 118.75C305.625 117.167 305.958 115.583 306.375 114C306.75 112.5 307.375 111.292 308.25 110.375C309.125 109.458 310.417 109 312.125 109C312.625 109 313.104 109.042 313.562 109.125C314.062 109.208 314.5 109.375 314.875 109.625C315.958 110.167 317.083 111.646 318.25 114.062C319.417 116.479 320.583 119.417 321.75 122.875C322.917 126.292 324.021 130 325.062 134C326.146 138 327.125 141.875 328 145.625C328.875 149.375 329.625 152.771 330.25 155.812C330.875 158.812 331.333 161.042 331.625 162.5C332.5 162.375 333.375 162.271 334.25 162.188C335.125 162.062 336 162 336.875 162C337.292 162 337.771 162.021 338.312 162.062C338.854 162.104 339.354 162.229 339.812 162.438C340.312 162.604 340.708 162.875 341 163.25C341.333 163.583 341.5 164.042 341.5 164.625ZM321.875 164.125C320.792 158.208 319.604 152.354 318.312 146.562C317.062 140.729 315.583 134.917 313.875 129.125C313.125 135.417 312.312 141.667 311.438 147.875C310.562 154.083 309.625 160.292 308.625 166.5C310.875 166.167 313.083 165.812 315.25 165.438C317.458 165.021 319.667 164.583 321.875 164.125ZM379.562 113C379.562 114.5 379.125 115.729 378.25 116.688C377.417 117.646 376.271 118.292 374.812 118.625C372.479 119.125 370.083 119.396 367.625 119.438C365.208 119.438 362.812 119.5 360.438 119.625V132C360.438 142.5 360.75 152.979 361.375 163.438C362.042 173.854 363.104 184.292 364.562 194.75C364.688 195.375 364.812 196 364.938 196.625C365.104 197.25 365.188 197.875 365.188 198.5C365.188 199.5 364.917 200.229 364.375 200.688C363.875 201.146 363.146 201.375 362.188 201.375C361.438 201.375 360.5 201.271 359.375 201.062C358.292 200.896 357.438 200.625 356.812 200.25C355.979 199.75 355.438 199.25 355.188 198.75C354.979 198.208 354.812 197.5 354.688 196.625C354.229 193.667 353.917 190.708 353.75 187.75C353.583 184.792 353.396 181.833 353.188 178.875C352.688 172.542 352.271 166.229 351.938 159.938C351.604 153.646 351.438 147.333 351.438 141C351.438 137.542 351.458 134.104 351.5 130.688C351.542 127.271 351.562 123.792 351.562 120.25C348.979 120.5 346.375 120.75 343.75 121C341.167 121.25 338.562 121.375 335.938 121.375C335.312 121.375 334.812 121.229 334.438 120.938C334.021 120.604 333.812 120.125 333.812 119.5C333.812 118.042 334.292 116.917 335.25 116.125C336.208 115.292 337.354 114.708 338.688 114.375C340.812 113.917 342.979 113.625 345.188 113.5C347.396 113.333 349.604 113.125 351.812 112.875C351.812 112.458 351.833 112.062 351.875 111.688C351.917 111.271 352 110.917 352.125 110.625C352.292 110.292 352.521 110.021 352.812 109.812C353.104 109.604 353.521 109.5 354.062 109.5C355.062 109.5 356.083 109.729 357.125 110.188C358.167 110.646 358.979 111.292 359.562 112.125L369.938 111C370.938 110.875 371.938 110.75 372.938 110.625C373.938 110.458 374.938 110.375 375.938 110.375C376.396 110.375 376.833 110.396 377.25 110.438C377.708 110.479 378.104 110.604 378.438 110.812C378.771 110.979 379.042 111.25 379.25 111.625C379.458 111.958 379.562 112.417 379.562 113ZM419.062 190C419.062 191.208 418.75 192.354 418.125 193.438C417.5 194.479 416.646 195.25 415.562 195.75C415.229 195.917 414.417 196.083 413.125 196.25C411.833 196.375 410.438 196.5 408.938 196.625C407.438 196.75 406 196.875 404.625 197C403.292 197.125 402.354 197.208 401.812 197.25C401.688 197.958 401.354 198.458 400.812 198.75C400.271 199 399.688 199.125 399.062 199.125C398.354 199.125 397.542 199.021 396.625 198.812C395.708 198.604 394.896 198.375 394.188 198.125C392.312 198.375 390.417 198.646 388.5 198.938C386.583 199.229 384.646 199.375 382.688 199.375C381.188 199.375 380.438 198.667 380.438 197.25C380.438 195.833 380.833 194.75 381.625 194C382.417 193.25 383.375 192.688 384.5 192.312C385.625 191.938 386.833 191.688 388.125 191.562C389.417 191.438 390.562 191.292 391.562 191.125C391.354 179.292 391.125 167.542 390.875 155.875C390.667 144.208 390.562 132.458 390.562 120.625C388.854 120.75 387.188 120.875 385.562 121C383.938 121.083 382.312 121.125 380.688 121.125C380.354 121.125 380 121.125 379.625 121.125C379.25 121.083 378.896 121.021 378.562 120.938C378.271 120.812 378.021 120.646 377.812 120.438C377.562 120.188 377.438 119.833 377.438 119.375C377.438 118.583 377.604 117.896 377.938 117.312C378.271 116.688 378.708 116.188 379.25 115.812C379.833 115.396 380.458 115.062 381.125 114.812C381.792 114.562 382.479 114.375 383.188 114.25C384.979 113.917 386.792 113.646 388.625 113.438C390.5 113.188 392.354 112.958 394.188 112.75C396.062 112.5 397.917 112.25 399.75 112C401.625 111.75 403.479 111.417 405.312 111C407.062 110.625 408.812 110.146 410.562 109.562C412.312 108.938 414.104 108.625 415.938 108.625C416.938 108.625 417.604 109 417.938 109.75C418.271 110.458 418.438 111.25 418.438 112.125C418.438 112.833 418.354 113.521 418.188 114.188C418.062 114.812 417.771 115.417 417.312 116C417.062 116.333 416.5 116.667 415.625 117C414.792 117.292 413.771 117.562 412.562 117.812C411.396 118.062 410.125 118.312 408.75 118.562C407.417 118.771 406.104 118.979 404.812 119.188C403.562 119.354 402.417 119.5 401.375 119.625C400.333 119.75 399.562 119.833 399.062 119.875C399.521 125.667 399.833 131.458 400 137.25C400.208 143.042 400.375 148.833 400.5 154.625C400.625 160.417 400.75 166.208 400.875 172C401 177.792 401.229 183.583 401.562 189.375C403.938 189 406.333 188.646 408.75 188.312C411.167 187.938 413.604 187.75 416.062 187.75C416.771 187.75 417.438 187.917 418.062 188.25C418.729 188.542 419.062 189.125 419.062 190ZM463.438 151C463.438 152.75 463.396 154.792 463.312 157.125C463.271 159.417 463.125 161.875 462.875 164.5C462.667 167.125 462.333 169.812 461.875 172.562C461.458 175.312 460.896 178 460.188 180.625C459.479 183.25 458.604 185.729 457.562 188.062C456.521 190.396 455.271 192.438 453.812 194.188C452.354 195.938 450.667 197.333 448.75 198.375C446.833 199.375 444.646 199.875 442.188 199.875C439.729 199.875 437.5 199.312 435.5 198.188C433.5 197.021 431.812 195.5 430.438 193.625C429.312 192.125 428.312 190.292 427.438 188.125C426.604 185.917 425.854 183.521 425.188 180.938C424.562 178.354 424.021 175.667 423.562 172.875C423.104 170.083 422.729 167.333 422.438 164.625C422.188 161.917 422 159.354 421.875 156.938C421.75 154.479 421.688 152.333 421.688 150.5C421.688 147.417 421.812 144.188 422.062 140.812C422.354 137.438 422.875 134.104 423.625 130.812C424.375 127.479 425.396 124.271 426.688 121.188C427.979 118.104 429.646 115.333 431.688 112.875C431.896 112.625 432.146 112.333 432.438 112C432.771 111.667 433.125 111.354 433.5 111.062C433.875 110.729 434.25 110.458 434.625 110.25C435.042 110 435.438 109.875 435.812 109.875C436.188 109.875 436.542 109.979 436.875 110.188C437.25 110.396 437.562 110.667 437.812 111C438.688 110.5 439.604 110.146 440.562 109.938C441.562 109.729 442.562 109.625 443.562 109.625C446.604 109.625 449.208 110.354 451.375 111.812C453.583 113.229 455.417 115.104 456.875 117.438C458.333 119.771 459.5 122.417 460.375 125.375C461.25 128.333 461.917 131.354 462.375 134.438C462.833 137.521 463.125 140.5 463.25 143.375C463.375 146.25 463.438 148.792 463.438 151ZM453.688 153.75C453.688 152.667 453.646 151.021 453.562 148.812C453.521 146.562 453.375 144.104 453.125 141.438C452.875 138.729 452.521 135.958 452.062 133.125C451.646 130.292 451.062 127.729 450.312 125.438C449.562 123.104 448.625 121.208 447.5 119.75C446.417 118.25 445.104 117.5 443.562 117.5C442.938 117.5 442.375 117.792 441.875 118.375C441.375 118.958 440.896 119.708 440.438 120.625C439.979 121.542 439.562 122.542 439.188 123.625C438.812 124.708 438.438 125.75 438.062 126.75C437.688 127.75 437.333 128.646 437 129.438C436.667 130.229 436.312 130.792 435.938 131.125C435.812 131.25 435.604 131.333 435.312 131.375C435.062 131.375 434.812 131.375 434.562 131.375C433.854 131.375 433.188 131.25 432.562 131C431.854 133.833 431.354 136.667 431.062 139.5C430.812 142.292 430.688 145.125 430.688 148C430.688 148.875 430.729 150.188 430.812 151.938C430.896 153.688 431.021 155.688 431.188 157.938C431.354 160.188 431.583 162.604 431.875 165.188C432.167 167.771 432.521 170.354 432.938 172.938C433.354 175.479 433.833 177.938 434.375 180.312C434.958 182.646 435.625 184.729 436.375 186.562C437.125 188.354 437.958 189.792 438.875 190.875C439.792 191.958 440.812 192.5 441.938 192.5C442.562 192.5 443.125 192.333 443.625 192C444.125 191.625 444.604 191.25 445.062 190.875C446.312 189.75 447.396 188.271 448.312 186.438C449.229 184.604 450 182.583 450.625 180.375C451.25 178.167 451.771 175.854 452.188 173.438C452.604 170.979 452.917 168.562 453.125 166.188C453.333 163.812 453.479 161.562 453.562 159.438C453.646 157.271 453.688 155.375 453.688 153.75ZM511.5 193.875C511.5 194.625 511.417 195.375 511.25 196.125C511.125 196.833 510.875 197.479 510.5 198.062C510.167 198.604 509.708 199.042 509.125 199.375C508.542 199.708 507.792 199.875 506.875 199.875C505.75 199.875 504.833 199.625 504.125 199.125C503.458 198.667 502.833 198 502.25 197.125C501.458 196 500.75 194.708 500.125 193.25C499.5 191.75 498.938 190.229 498.438 188.688C497.938 187.104 497.458 185.542 497 184C496.583 182.417 496.167 180.958 495.75 179.625C493.5 172.625 491.396 165.646 489.438 158.688C487.521 151.729 485.458 144.75 483.25 137.75C483.042 146.792 482.875 155.792 482.75 164.75C482.667 173.708 482.625 182.708 482.625 191.75C482.625 192.208 482.604 192.729 482.562 193.312C482.521 193.896 482.417 194.458 482.25 195C482.083 195.5 481.812 195.938 481.438 196.312C481.104 196.688 480.625 196.875 480 196.875C477.875 196.875 476.25 196.312 475.125 195.188C474.042 194.021 473.5 192.375 473.5 190.25C473.5 178.542 473.521 166.938 473.562 155.438C473.604 143.938 473.625 132.375 473.625 120.75V111.875C473.625 110.917 473.792 110.125 474.125 109.5C474.5 108.833 475.292 108.5 476.5 108.5C477.333 108.5 478.188 108.625 479.062 108.875C479.938 109.083 480.708 109.417 481.375 109.875C482.083 110.333 482.646 110.938 483.062 111.688C483.521 112.396 483.75 113.25 483.75 114.25C485.5 117.583 486.958 121.021 488.125 124.562C489.333 128.104 490.5 131.667 491.625 135.25C493.25 140.458 494.854 145.667 496.438 150.875C498.021 156.083 499.625 161.333 501.25 166.625C501 158.75 500.729 150.896 500.438 143.062C500.188 135.188 499.667 127.333 498.875 119.5C498.667 117.792 498.417 116.125 498.125 114.5C497.875 112.875 497.75 111.208 497.75 109.5C497.75 108.625 498.042 108.042 498.625 107.75C499.208 107.417 499.875 107.25 500.625 107.25C501.917 107.25 503.021 107.354 503.938 107.562C504.854 107.771 505.625 108.125 506.25 108.625C506.875 109.125 507.354 109.812 507.688 110.688C508.021 111.521 508.292 112.583 508.5 113.875C508.75 116.125 508.938 118.396 509.062 120.688C509.229 122.938 509.375 125.167 509.5 127.375C509.875 132.958 510.146 138.5 510.312 144C510.479 149.5 510.625 155.042 510.75 160.625C510.875 166.167 511.021 171.708 511.188 177.25C511.396 182.75 511.5 188.292 511.5 193.875Z" fill="black"/>
<path d="M51.3125 284.5C51.3125 285.125 51.2083 285.75 51 286.375C50.8333 286.958 50.6458 287.542 50.4375 288.125C49.5208 290.5 48.3958 292.708 47.0625 294.75C45.7292 296.75 44.1875 298.479 42.4375 299.938C40.6875 301.396 38.7083 302.542 36.5 303.375C34.2917 304.208 31.8542 304.625 29.1875 304.625C25.6458 304.625 22.6042 303.875 20.0625 302.375C17.5208 300.875 15.3542 298.938 13.5625 296.562C11.7708 294.146 10.2917 291.458 9.125 288.5C8 285.542 7.10417 282.583 6.4375 279.625C5.4375 275.333 4.66667 271.042 4.125 266.75C3.58333 262.417 3.3125 258.083 3.3125 253.75C3.3125 251.208 3.41667 248.583 3.625 245.875C3.875 243.167 4.29167 240.5 4.875 237.875C5.45833 235.208 6.25 232.646 7.25 230.188C8.25 227.688 9.5 225.396 11 223.312C12.5 221.188 14.2708 219.312 16.3125 217.688C18.3958 216.062 20.8125 214.792 23.5625 213.875C24.5625 213.5 25.6042 213.25 26.6875 213.125C27.7708 212.958 28.8542 212.875 29.9375 212.875C32.1042 212.875 34.1667 213.229 36.125 213.938C38.0833 214.646 39.7917 215.646 41.25 216.938C42.75 218.229 43.9167 219.792 44.75 221.625C45.625 223.458 46.0625 225.5 46.0625 227.75C46.0625 228.5 45.8958 229.062 45.5625 229.438C45.2292 229.812 44.6458 230 43.8125 230C42.2708 230 41.0625 229.75 40.1875 229.25C39.3542 228.75 38.6667 228.125 38.125 227.375C37.5833 226.625 37.125 225.812 36.75 224.938C36.4167 224.062 36 223.25 35.5 222.5C35 221.75 34.3333 221.125 33.5 220.625C32.6667 220.125 31.5208 219.875 30.0625 219.875C28.6042 219.875 27.2292 220.167 25.9375 220.75C24.6875 221.292 23.5208 222.021 22.4375 222.938C21.3958 223.854 20.4375 224.896 19.5625 226.062C18.7292 227.188 17.9792 228.333 17.3125 229.5C15.5625 232.75 14.3333 236.229 13.625 239.938C12.9167 243.604 12.5625 247.292 12.5625 251C12.5625 252.25 12.6042 253.875 12.6875 255.875C12.8125 257.833 12.9792 260 13.1875 262.375C13.4375 264.75 13.7708 267.271 14.1875 269.938C14.6042 272.562 15.1042 275.146 15.6875 277.688C16.3125 280.229 17.0417 282.667 17.875 285C18.75 287.333 19.7292 289.375 20.8125 291.125C21.9375 292.875 23.1875 294.271 24.5625 295.312C25.9792 296.354 27.5625 296.875 29.3125 296.875C31.1042 296.875 32.6875 296.417 34.0625 295.5C35.4375 294.542 36.6042 293.354 37.5625 291.938C38.5625 290.479 39.375 288.917 40 287.25C40.6667 285.542 41.1875 283.958 41.5625 282.5C41.6875 282.083 41.7917 281.708 41.875 281.375C42 281.042 42.1458 280.75 42.3125 280.5C42.5208 280.25 42.7708 280.062 43.0625 279.938C43.3542 279.812 43.7708 279.75 44.3125 279.75C44.8958 279.75 45.5833 279.875 46.375 280.125C47.2083 280.333 47.9792 280.646 48.6875 281.062C49.4375 281.479 50.0625 281.979 50.5625 282.562C51.0625 283.146 51.3125 283.792 51.3125 284.5ZM98.875 289.375C98.875 290.083 98.5833 290.771 98 291.438C97.4583 292.104 96.7917 292.75 96 293.375C95.2083 294 94.3958 294.583 93.5625 295.125C92.7292 295.625 92.0417 296.042 91.5 296.375C90.0833 297.292 88.6667 298.146 87.25 298.938C85.875 299.729 84.4375 300.417 82.9375 301C81.4792 301.583 79.9583 302.042 78.375 302.375C76.8333 302.708 75.2083 302.875 73.5 302.875L72.5 303C71.125 303 69.75 302.854 68.375 302.562C67.0417 302.229 65.7917 301.75 64.625 301.125C63.4583 300.458 62.4167 299.625 61.5 298.625C60.5833 297.625 59.875 296.417 59.375 295C59 293.875 58.7083 292.542 58.5 291C58.2917 289.458 58.125 287.854 58 286.188C57.9167 284.521 57.8333 282.896 57.75 281.312C57.7083 279.688 57.6667 278.25 57.625 277C57 264.25 56.5 251.5 56.125 238.75C56.0417 237.292 55.9792 235.833 55.9375 234.375C55.8958 232.917 55.875 231.458 55.875 230C55.875 227.5 56.0208 225.375 56.3125 223.625C56.6042 221.875 57.1875 220.438 58.0625 219.312C58.9375 218.188 60.1875 217.375 61.8125 216.875C63.4792 216.375 65.6667 216.125 68.375 216.125C71.0833 216.125 73.7917 216.146 76.5 216.188C79.25 216.229 82 216.25 84.75 216.25C85.5833 216.25 86.4167 216.229 87.25 216.188C88.0833 216.104 88.9167 216.167 89.75 216.375C90.25 216.458 90.6875 216.604 91.0625 216.812C91.4375 216.979 91.625 217.375 91.625 218C91.625 219.5 91.125 220.625 90.125 221.375C89.125 222.083 87.9375 222.562 86.5625 222.812C85.1875 223.062 83.75 223.188 82.25 223.188C80.7917 223.146 79.5833 223.125 78.625 223.125H70.5C69.6667 223.125 68.8333 223.125 68 223.125C67.1667 223.125 66.3333 223.167 65.5 223.25C65.25 223.875 65.0833 224.521 65 225.188C64.9167 225.854 64.875 226.542 64.875 227.25C64.875 231.792 64.9792 236.271 65.1875 240.688C65.4375 245.104 65.6667 249.583 65.875 254.125C68.4583 253.917 71.0208 253.667 73.5625 253.375C76.1042 253.083 78.6667 252.75 81.25 252.375C81.625 252.375 81.9583 252.354 82.25 252.312C82.5833 252.271 82.9167 252.25 83.25 252.25C84.125 252.25 84.7292 252.479 85.0625 252.938C85.4375 253.396 85.625 254.042 85.625 254.875C85.625 255.458 85.5833 256 85.5 256.5C85.4583 257 85.3333 257.5 85.125 258C84.8333 258.833 84.3542 259.438 83.6875 259.812C83.0208 260.188 82.2708 260.458 81.4375 260.625C80.6042 260.75 79.7292 260.812 78.8125 260.812C77.9375 260.812 77.1667 260.833 76.5 260.875C74.75 260.958 73.0208 261.021 71.3125 261.062C69.6458 261.104 67.9583 261.167 66.25 261.25C66.2917 262.125 66.3542 263.438 66.4375 265.188C66.5208 266.938 66.6042 268.917 66.6875 271.125C66.8125 273.292 66.9375 275.542 67.0625 277.875C67.2292 280.208 67.3958 282.417 67.5625 284.5C67.7292 286.542 67.9167 288.333 68.125 289.875C68.3333 291.417 68.5417 292.458 68.75 293C69.2083 293.875 69.7292 294.458 70.3125 294.75C70.8958 295 71.6667 295.125 72.625 295.125C74.1667 295.125 75.7917 294.833 77.5 294.25C79.2083 293.625 80.875 292.854 82.5 291.938C84.125 290.979 85.6667 289.938 87.125 288.812C88.625 287.688 89.9167 286.583 91 285.5C91.4583 285.125 91.9167 284.75 92.375 284.375C92.8333 283.958 93.375 283.75 94 283.75C94.625 283.75 95.2292 283.938 95.8125 284.312C96.3958 284.688 96.9167 285.167 97.375 285.75C97.8333 286.292 98.1875 286.896 98.4375 287.562C98.7292 288.229 98.875 288.833 98.875 289.375ZM141.75 297.875C141.75 298.625 141.667 299.375 141.5 300.125C141.375 300.833 141.125 301.479 140.75 302.062C140.417 302.604 139.958 303.042 139.375 303.375C138.792 303.708 138.042 303.875 137.125 303.875C136 303.875 135.083 303.625 134.375 303.125C133.708 302.667 133.083 302 132.5 301.125C131.708 300 131 298.708 130.375 297.25C129.75 295.75 129.188 294.229 128.688 292.688C128.188 291.104 127.708 289.542 127.25 288C126.833 286.417 126.417 284.958 126 283.625C123.75 276.625 121.646 269.646 119.688 262.688C117.771 255.729 115.708 248.75 113.5 241.75C113.292 250.792 113.125 259.792 113 268.75C112.917 277.708 112.875 286.708 112.875 295.75C112.875 296.208 112.854 296.729 112.812 297.312C112.771 297.896 112.667 298.458 112.5 299C112.333 299.5 112.062 299.938 111.688 300.312C111.354 300.688 110.875 300.875 110.25 300.875C108.125 300.875 106.5 300.312 105.375 299.188C104.292 298.021 103.75 296.375 103.75 294.25C103.75 282.542 103.771 270.938 103.812 259.438C103.854 247.938 103.875 236.375 103.875 224.75V215.875C103.875 214.917 104.042 214.125 104.375 213.5C104.75 212.833 105.542 212.5 106.75 212.5C107.583 212.5 108.438 212.625 109.312 212.875C110.188 213.083 110.958 213.417 111.625 213.875C112.333 214.333 112.896 214.938 113.312 215.688C113.771 216.396 114 217.25 114 218.25C115.75 221.583 117.208 225.021 118.375 228.562C119.583 232.104 120.75 235.667 121.875 239.25C123.5 244.458 125.104 249.667 126.688 254.875C128.271 260.083 129.875 265.333 131.5 270.625C131.25 262.75 130.979 254.896 130.688 247.062C130.438 239.188 129.917 231.333 129.125 223.5C128.917 221.792 128.667 220.125 128.375 218.5C128.125 216.875 128 215.208 128 213.5C128 212.625 128.292 212.042 128.875 211.75C129.458 211.417 130.125 211.25 130.875 211.25C132.167 211.25 133.271 211.354 134.188 211.562C135.104 211.771 135.875 212.125 136.5 212.625C137.125 213.125 137.604 213.812 137.938 214.688C138.271 215.521 138.542 216.583 138.75 217.875C139 220.125 139.188 222.396 139.312 224.688C139.479 226.938 139.625 229.167 139.75 231.375C140.125 236.958 140.396 242.5 140.562 248C140.729 253.5 140.875 259.042 141 264.625C141.125 270.167 141.271 275.708 141.438 281.25C141.646 286.75 141.75 292.292 141.75 297.875ZM191.438 217C191.438 218.5 191 219.729 190.125 220.688C189.292 221.646 188.146 222.292 186.688 222.625C184.354 223.125 181.958 223.396 179.5 223.438C177.083 223.438 174.688 223.5 172.312 223.625V236C172.312 246.5 172.625 256.979 173.25 267.438C173.917 277.854 174.979 288.292 176.438 298.75C176.562 299.375 176.688 300 176.812 300.625C176.979 301.25 177.062 301.875 177.062 302.5C177.062 303.5 176.792 304.229 176.25 304.688C175.75 305.146 175.021 305.375 174.062 305.375C173.312 305.375 172.375 305.271 171.25 305.062C170.167 304.896 169.312 304.625 168.688 304.25C167.854 303.75 167.312 303.25 167.062 302.75C166.854 302.208 166.688 301.5 166.562 300.625C166.104 297.667 165.792 294.708 165.625 291.75C165.458 288.792 165.271 285.833 165.062 282.875C164.562 276.542 164.146 270.229 163.812 263.938C163.479 257.646 163.312 251.333 163.312 245C163.312 241.542 163.333 238.104 163.375 234.688C163.417 231.271 163.438 227.792 163.438 224.25C160.854 224.5 158.25 224.75 155.625 225C153.042 225.25 150.438 225.375 147.812 225.375C147.188 225.375 146.688 225.229 146.312 224.938C145.896 224.604 145.688 224.125 145.688 223.5C145.688 222.042 146.167 220.917 147.125 220.125C148.083 219.292 149.229 218.708 150.562 218.375C152.688 217.917 154.854 217.625 157.062 217.5C159.271 217.333 161.479 217.125 163.688 216.875C163.688 216.458 163.708 216.062 163.75 215.688C163.792 215.271 163.875 214.917 164 214.625C164.167 214.292 164.396 214.021 164.688 213.812C164.979 213.604 165.396 213.5 165.938 213.5C166.938 213.5 167.958 213.729 169 214.188C170.042 214.646 170.854 215.292 171.438 216.125L181.812 215C182.812 214.875 183.812 214.75 184.812 214.625C185.812 214.458 186.812 214.375 187.812 214.375C188.271 214.375 188.708 214.396 189.125 214.438C189.583 214.479 189.979 214.604 190.312 214.812C190.646 214.979 190.917 215.25 191.125 215.625C191.333 215.958 191.438 216.417 191.438 217ZM237.75 289.375C237.75 290.083 237.458 290.771 236.875 291.438C236.333 292.104 235.667 292.75 234.875 293.375C234.083 294 233.271 294.583 232.438 295.125C231.604 295.625 230.917 296.042 230.375 296.375C228.958 297.292 227.542 298.146 226.125 298.938C224.75 299.729 223.312 300.417 221.812 301C220.354 301.583 218.833 302.042 217.25 302.375C215.708 302.708 214.083 302.875 212.375 302.875L211.375 303C210 303 208.625 302.854 207.25 302.562C205.917 302.229 204.667 301.75 203.5 301.125C202.333 300.458 201.292 299.625 200.375 298.625C199.458 297.625 198.75 296.417 198.25 295C197.875 293.875 197.583 292.542 197.375 291C197.167 289.458 197 287.854 196.875 286.188C196.792 284.521 196.708 282.896 196.625 281.312C196.583 279.688 196.542 278.25 196.5 277C195.875 264.25 195.375 251.5 195 238.75C194.917 237.292 194.854 235.833 194.812 234.375C194.771 232.917 194.75 231.458 194.75 230C194.75 227.5 194.896 225.375 195.188 223.625C195.479 221.875 196.062 220.438 196.938 219.312C197.812 218.188 199.062 217.375 200.688 216.875C202.354 216.375 204.542 216.125 207.25 216.125C209.958 216.125 212.667 216.146 215.375 216.188C218.125 216.229 220.875 216.25 223.625 216.25C224.458 216.25 225.292 216.229 226.125 216.188C226.958 216.104 227.792 216.167 228.625 216.375C229.125 216.458 229.562 216.604 229.938 216.812C230.312 216.979 230.5 217.375 230.5 218C230.5 219.5 230 220.625 229 221.375C228 222.083 226.812 222.562 225.438 222.812C224.062 223.062 222.625 223.188 221.125 223.188C219.667 223.146 218.458 223.125 217.5 223.125H209.375C208.542 223.125 207.708 223.125 206.875 223.125C206.042 223.125 205.208 223.167 204.375 223.25C204.125 223.875 203.958 224.521 203.875 225.188C203.792 225.854 203.75 226.542 203.75 227.25C203.75 231.792 203.854 236.271 204.062 240.688C204.312 245.104 204.542 249.583 204.75 254.125C207.333 253.917 209.896 253.667 212.438 253.375C214.979 253.083 217.542 252.75 220.125 252.375C220.5 252.375 220.833 252.354 221.125 252.312C221.458 252.271 221.792 252.25 222.125 252.25C223 252.25 223.604 252.479 223.938 252.938C224.312 253.396 224.5 254.042 224.5 254.875C224.5 255.458 224.458 256 224.375 256.5C224.333 257 224.208 257.5 224 258C223.708 258.833 223.229 259.438 222.562 259.812C221.896 260.188 221.146 260.458 220.312 260.625C219.479 260.75 218.604 260.812 217.688 260.812C216.812 260.812 216.042 260.833 215.375 260.875C213.625 260.958 211.896 261.021 210.188 261.062C208.521 261.104 206.833 261.167 205.125 261.25C205.167 262.125 205.229 263.438 205.312 265.188C205.396 266.938 205.479 268.917 205.562 271.125C205.688 273.292 205.812 275.542 205.938 277.875C206.104 280.208 206.271 282.417 206.438 284.5C206.604 286.542 206.792 288.333 207 289.875C207.208 291.417 207.417 292.458 207.625 293C208.083 293.875 208.604 294.458 209.188 294.75C209.771 295 210.542 295.125 211.5 295.125C213.042 295.125 214.667 294.833 216.375 294.25C218.083 293.625 219.75 292.854 221.375 291.938C223 290.979 224.542 289.938 226 288.812C227.5 287.688 228.792 286.583 229.875 285.5C230.333 285.125 230.792 284.75 231.25 284.375C231.708 283.958 232.25 283.75 232.875 283.75C233.5 283.75 234.104 283.938 234.688 284.312C235.271 284.688 235.792 285.167 236.25 285.75C236.708 286.292 237.062 286.896 237.312 287.562C237.604 288.229 237.75 288.833 237.75 289.375ZM289.875 302.75C289.875 303.25 289.625 303.667 289.125 304C288.625 304.333 288.021 304.604 287.312 304.812C286.646 305.021 285.958 305.167 285.25 305.25C284.583 305.333 284.083 305.375 283.75 305.375C282.917 305.375 282.229 305.292 281.688 305.125C281.188 305 280.583 304.75 279.875 304.375C279.667 304.25 279.167 303.729 278.375 302.812C277.625 301.854 276.667 300.625 275.5 299.125C274.375 297.625 273.083 295.917 271.625 294C270.208 292.083 268.729 290.125 267.188 288.125C265.688 286.083 264.188 284.062 262.688 282.062C261.229 280.021 259.875 278.167 258.625 276.5C257.375 274.792 256.292 273.312 255.375 272.062C254.5 270.771 253.875 269.875 253.5 269.375L253.125 269.5C253.375 274.458 253.688 279.417 254.062 284.375C254.479 289.292 255.167 294.167 256.125 299C256.25 299.5 256.375 300.021 256.5 300.562C256.667 301.104 256.75 301.667 256.75 302.25C256.75 303.208 256.438 303.812 255.812 304.062C255.188 304.354 254.5 304.5 253.75 304.5C253.333 304.5 252.833 304.479 252.25 304.438C251.667 304.396 251.062 304.312 250.438 304.188C249.812 304.062 249.229 303.896 248.688 303.688C248.188 303.521 247.792 303.292 247.5 303C246.917 302.5 246.542 301.979 246.375 301.438C246.25 300.896 246.125 300.25 246 299.5C244.792 291.125 244.021 282.729 243.688 274.312C243.396 265.854 243.25 257.417 243.25 249C243.25 245.333 243.271 241.729 243.312 238.188C243.354 234.646 243.417 231.042 243.5 227.375C243 227.333 242.521 227.167 242.062 226.875C241.646 226.583 241.271 226.229 240.938 225.812C240.604 225.354 240.333 224.896 240.125 224.438C239.958 223.938 239.875 223.458 239.875 223C239.875 222.542 239.979 222.083 240.188 221.625C240.438 221.167 240.729 220.75 241.062 220.375C241.438 220 241.833 219.646 242.25 219.312C242.667 218.979 243.042 218.708 243.375 218.5V217.375C243.375 216.958 243.375 216.479 243.375 215.938C243.417 215.396 243.5 214.896 243.625 214.438C243.792 213.938 244.042 213.542 244.375 213.25C244.708 212.917 245.208 212.75 245.875 212.75C246.75 212.75 247.625 212.896 248.5 213.188C249.375 213.479 250.125 214 250.75 214.75C253.875 213.5 257.167 212.875 260.625 212.875C263.667 212.875 266.438 213.479 268.938 214.688C271.438 215.896 273.562 217.521 275.312 219.562C277.104 221.604 278.479 223.958 279.438 226.625C280.396 229.292 280.875 232.083 280.875 235C280.875 238.125 280.292 241.167 279.125 244.125C277.958 247.042 276.438 249.812 274.562 252.438C272.688 255.062 270.542 257.479 268.125 259.688C265.75 261.854 263.333 263.75 260.875 265.375C264.792 270.583 268.75 275.75 272.75 280.875C276.792 285.958 280.917 291.042 285.125 296.125C285.375 296.417 285.75 296.854 286.25 297.438C286.792 298.021 287.333 298.667 287.875 299.375C288.417 300.042 288.875 300.688 289.25 301.312C289.667 301.938 289.875 302.417 289.875 302.75ZM271.625 234C271.625 232.458 271.354 230.854 270.812 229.188C270.271 227.521 269.5 226.021 268.5 224.688C267.5 223.312 266.292 222.188 264.875 221.312C263.5 220.438 261.958 220 260.25 220C258.875 220 257.5 220.208 256.125 220.625C254.792 221 253.5 221.5 252.25 222.125C252.333 228.333 252.396 234.542 252.438 240.75C252.521 246.958 252.625 253.167 252.75 259.375L253.875 259.5C256.042 258.292 258.167 256.771 260.25 254.938C262.375 253.104 264.271 251.062 265.938 248.812C267.646 246.562 269.021 244.188 270.062 241.688C271.104 239.146 271.625 236.583 271.625 234Z" fill="black"/>
</svg>
